<?xml version="1.0" encoding="UTF-8"?>
<svg id="Total_amount_of_medals" data-name="Total amount of medals" xmlns="http://www.w3.org/2000/svg" xmlns:xlink="http://www.w3.org/1999/xlink" viewBox="0 0 128 128">
  <defs>
    <style>
      .cls-1, .cls-2 {
        fill: #8093ab;
      }

      .cls-3 {
        fill: #ffd75a;
      }

      .cls-3, .cls-2, .cls-4, .cls-5, .cls-6, .cls-7, .cls-8, .cls-9 {
        stroke-width: 0px;
      }

      .cls-10, .cls-4 {
        fill: #d2542d;
      }

      .cls-11, .cls-9 {
        fill: #a4001d;
      }

      .cls-12 {
        clip-path: url(#clippath-2);
      }

      .cls-13 {
        clip-path: url(#clippath-6);
      }

      .cls-14 {
        clip-path: url(#clippath-1);
      }

      .cls-15 {
        clip-path: url(#clippath-4);
      }

      .cls-5, .cls-16 {
        fill: #27001d;
      }

      .cls-17 {
        clip-path: url(#clippath);
      }

      .cls-6 {
        fill: #667282;
      }

      .cls-18 {
        clip-path: url(#clippath-3);
      }

      .cls-7, .cls-19 {
        fill: #ffb942;
      }

      .cls-8 {
        fill: #b63f31;
      }

      .cls-20 {
        clip-path: url(#clippath-5);
      }
    </style>
    <clipPath id="clippath">
      <path id="RRibbon-2" data-name="RRibbon" class="cls-9" d="M84.18,78.5l-2.67-23.96.56-.14c3.38-.85,6.77-1.7,10.15-2.54l.56-.14,8.95,22.39,1.45,3.62c.07.18-.25.39-.55.36-1.91-.22-4.34-.67-6.73-1.61-1.26-.47-2.31-1.03-3.2-1.63-.06-.04-.18,0-.22.05-.5.95-1.17,1.94-2.05,2.95-1.66,1.96-3.59,3.5-5.18,4.59-.25.17-.63.14-.65-.06l-.43-3.88Z"/>
    </clipPath>
    <clipPath id="clippath-1">
      <path id="RRibbon-5" data-name="RRibbon" class="cls-5" d="M71.04,81.94l-.48-24.08.54-.08c3.25-.48,6.5-.96,9.75-1.44l.54-.08,6.51,23.19,1.05,3.75c.05.19-.27.36-.54.29-1.78-.42-4.02-1.13-6.18-2.32-1.14-.6-2.08-1.27-2.87-1.96-.05-.05-.17-.03-.21.03-.55.89-1.26,1.8-2.18,2.71-1.72,1.76-3.67,3.09-5.25,4.01-.24.14-.6.07-.61-.12l-.08-3.9Z"/>
    </clipPath>
    <clipPath id="clippath-2">
      <path class="cls-4" d="M85.25,33.14c-8.1,0-14.68,6.59-14.68,14.68s6.59,14.68,14.68,14.68,14.68-6.59,14.68-14.68-6.59-14.68-14.68-14.68Z"/>
    </clipPath>
    <clipPath id="clippath-3">
      <path class="cls-2" d="M72.54,34.14c-8.8,0-15.96,7.16-15.96,15.96s7.16,15.96,15.96,15.96,15.96-7.16,15.96-15.96-7.16-15.96-15.96-15.96Z"/>
    </clipPath>
    <clipPath id="clippath-4">
      <path id="LRibbon-2" data-name="LRibbon" class="cls-9" d="M30.24,88.45l20.08-30.81c.55-.84,1.59-1.14,2.38-.68l8.63,4.94c.79.45,1.06,1.51.62,2.4l-16.44,32.9s-.04.07-.06.1l-.22.39c-.24.41-.61.73-1.04.89l-10.45,3.81h0c-.31.11-.63.23-.94.34-.41.15-.83-.09-.91-.52l-.18-.98h0s-1.99-10.94-1.99-10.94c-.08-.45,0-.93.24-1.34l.23-.4s.04-.07.06-.1Z"/>
    </clipPath>
    <clipPath id="clippath-5">
      <path id="RRibbon-8" data-name="RRibbon" class="cls-9" d="M59.47,86.8l-.71-24.04.5-.07c3-.44,6-.89,9.01-1.33l.5-.07,6.28,23.22,1.02,3.76c.05.19-.25.36-.5.29-1.65-.44-3.73-1.17-5.75-2.38-1.06-.61-1.94-1.29-2.67-1.99-.05-.05-.16-.03-.19.03-.5.88-1.14,1.79-1.98,2.68-1.58,1.74-3.36,3.04-4.81,3.94-.22.14-.56.06-.56-.13l-.11-3.89Z"/>
    </clipPath>
    <clipPath id="clippath-6">
      <path class="cls-7" d="M61.06,35.5c-9.8,0-17.77,7.97-17.77,17.77s7.97,17.77,17.77,17.77,17.77-7.97,17.77-17.77-7.97-17.77-17.77-17.77Z"/>
    </clipPath>
  </defs>
  <g>
    <path id="RRibbon" class="cls-11" d="M84.18,78.5l-2.67-23.96.56-.14c3.38-.85,6.77-1.7,10.15-2.54l.56-.14,8.95,22.39,1.45,3.62c.07.18-.25.39-.55.36-1.91-.22-4.34-.67-6.73-1.61-1.26-.47-2.31-1.03-3.2-1.63-.06-.04-.18,0-.22.05-.5.95-1.17,1.94-2.05,2.95-1.66,1.96-3.59,3.5-5.18,4.59-.25.17-.63.14-.65-.06l-.43-3.88Z"/>
    <g class="cls-17">
      <path id="RRibbon-3" data-name="RRibbon" class="cls-9" d="M82.34,73l-2.78-24.96.59-.15,10.58-2.65.59-.15,9.32,23.32,1.51,3.78c.07.19-.26.41-.57.37-1.99-.23-4.53-.69-7.01-1.68-1.31-.49-2.41-1.07-3.33-1.7-.06-.04-.19-.01-.22.06-.52.99-1.21,2.02-2.14,3.07-1.73,2.04-3.74,3.64-5.39,4.78-.26.18-.66.14-.68-.06l-.45-4.04Z"/>
    </g>
  </g>
  <g>
    <path id="RRibbon-4" data-name="RRibbon" class="cls-16" d="M71.04,81.94l-.48-24.08.54-.08c3.25-.48,6.5-.96,9.75-1.44l.54-.08,6.51,23.19,1.05,3.75c.05.19-.27.36-.54.29-1.78-.42-4.02-1.13-6.18-2.32-1.14-.6-2.08-1.27-2.87-1.96-.05-.05-.17-.03-.21.03-.55.89-1.26,1.8-2.18,2.71-1.72,1.76-3.67,3.09-5.25,4.01-.24.14-.6.07-.61-.12l-.08-3.9Z"/>
    <g class="cls-14">
      <path id="RRibbon-6" data-name="RRibbon" class="cls-5" d="M69.78,76.28l-.5-25.08.56-.08,10.15-1.5.56-.08,6.78,24.16,1.1,3.91c.05.19-.28.38-.57.31-1.85-.44-4.19-1.17-6.44-2.41-1.19-.63-2.17-1.32-2.99-2.05-.05-.05-.18-.03-.22.03-.57.93-1.31,1.88-2.27,2.82-1.8,1.84-3.82,3.22-5.47,4.17-.25.15-.63.07-.63-.13l-.08-4.06Z"/>
    </g>
  </g>
  <g>
    <path class="cls-10" d="M85.25,33.14c-8.1,0-14.68,6.59-14.68,14.68s6.59,14.68,14.68,14.68,14.68-6.59,14.68-14.68-6.59-14.68-14.68-14.68Z"/>
    <g class="cls-12">
      <polygon class="cls-8" points="92.31 14.29 50.82 58.23 57.17 65.35 96.77 18.18 92.31 14.29"/>
      <polygon class="cls-8" points="96.69 24.88 65.69 63.88 67.69 64.88 99.69 25.88 96.69 24.88"/>
    </g>
  </g>
  <g>
    <path class="cls-1" d="M72.54,34.14c-8.8,0-15.96,7.16-15.96,15.96s7.16,15.96,15.96,15.96,15.96-7.16,15.96-15.96-7.16-15.96-15.96-15.96Z"/>
    <g class="cls-18">
      <polygon class="cls-6" points="81.59 17.57 40.1 61.51 46.46 68.63 86.06 21.46 81.59 17.57"/>
      <polygon class="cls-6" points="85.97 28.16 54.97 67.16 56.97 68.16 88.97 29.16 85.97 28.16"/>
    </g>
  </g>
  <g>
    <path id="LRibbon" class="cls-11" d="M30.24,88.45l20.08-30.81c.55-.84,1.59-1.14,2.38-.68l8.63,4.94c.79.45,1.06,1.51.62,2.4l-16.44,32.9s-.04.07-.06.1l-.22.39c-.24.41-.61.73-1.04.89l-10.45,3.81h0c-.31.11-.63.23-.94.34-.41.15-.83-.09-.91-.52l-.18-.98h0s-1.99-10.94-1.99-10.94c-.08-.45,0-.93.24-1.34l.23-.4s.04-.07.06-.1Z"/>
    <g class="cls-15">
      <path id="LRibbon-3" data-name="LRibbon" class="cls-9" d="M33.79,81.84l20.13-30.78c.55-.84,1.61-1.13,2.43-.66l8.87,5.09c.82.47,1.1,1.53.66,2.43l-16.39,32.93s-.04.07-.06.1l-.22.39c-.24.41-.61.73-1.05.88l-10.63,3.71h0c-.49.17-.98.34-1.47.51-.14.05-.29-.03-.32-.18l-.3-1.53h0s-2.17-11.04-2.17-11.04c-.09-.45,0-.94.23-1.35l.23-.4s.04-.07.06-.1Z"/>
    </g>
  </g>
  <g>
    <path id="RRibbon-7" data-name="RRibbon" class="cls-11" d="M59.47,86.8l-.71-24.04.5-.07c3-.44,6-.89,9.01-1.33l.5-.07,6.28,23.22,1.02,3.76c.05.19-.25.36-.5.29-1.65-.44-3.73-1.17-5.75-2.38-1.06-.61-1.94-1.29-2.67-1.99-.05-.05-.16-.03-.19.03-.5.88-1.14,1.79-1.98,2.68-1.58,1.74-3.36,3.04-4.81,3.94-.22.14-.56.06-.56-.13l-.11-3.89Z"/>
    <g class="cls-20">
      <path id="RRibbon-9" data-name="RRibbon" class="cls-9" d="M58.24,81.13l-.74-25.05.52-.08,9.38-1.39.52-.08,6.54,24.19,1.06,3.92c.05.19-.26.37-.52.3-1.72-.46-3.89-1.22-5.99-2.48-1.11-.64-2.02-1.34-2.79-2.08-.05-.05-.16-.03-.2.03-.52.92-1.19,1.86-2.07,2.79-1.64,1.82-3.5,3.17-5.01,4.11-.23.15-.58.06-.59-.14l-.12-4.06Z"/>
    </g>
  </g>
  <g>
    <path class="cls-19" d="M61.06,35.5c-9.8,0-17.77,7.97-17.77,17.77s7.97,17.77,17.77,17.77,17.77-7.97,17.77-17.77-7.97-17.77-17.77-17.77Z"/>
    <g class="cls-13">
      <polygon class="cls-3" points="71.62 26.4 30.12 70.35 36.48 77.47 76.08 30.3 71.62 26.4"/>
      <polygon class="cls-3" points="76 37 45 76 47 77 79 38 76 37"/>
    </g>
  </g>
</svg>