<?xml version="1.0" encoding="UTF-8"?>
<svg id="Silver" xmlns="http://www.w3.org/2000/svg" xmlns:xlink="http://www.w3.org/1999/xlink" viewBox="0 0 128 128">
  <defs>
    <style>
      .cls-1 {
        fill: #8093ab;
      }

      .cls-1, .cls-2, .cls-3, .cls-4, .cls-5 {
        stroke-width: 0px;
      }

      .cls-2, .cls-6 {
        fill: #566578;
      }

      .cls-7 {
        clip-path: url(#clippath-2);
      }

      .cls-8 {
        clip-path: url(#clippath-1);
      }

      .cls-9 {
        fill: #000;
        font-family: MyriadPro-Regular, 'Myriad Pro';
        font-size: 20px;
      }

      .cls-3, .cls-10 {
        fill: #27001d;
      }

      .cls-11 {
        clip-path: url(#clippath);
      }

      .cls-4 {
        fill: #667282;
      }

      .cls-5 {
        fill: #a4001d;
      }
    </style>
    <clipPath id="clippath">
      <path id="LRibbon-2" data-name="LRibbon" class="cls-3" d="M86.07,77.97l-19.89-33.42c-.54-.91-1.87-1.17-3.02-.6l-12.59,6.25c-1.16.57-1.75,1.79-1.35,2.77l14.58,36.06s.03.08.05.11l.21.42c.22.45.65.78,1.19.93l13.08,3.54h0c.39.1.78.21,1.17.32.52.14,1.13-.16,1.33-.66l.46-1.13h0s5.09-12.54,5.09-12.54c.21-.52.2-1.05-.02-1.5l-.21-.43s-.04-.07-.06-.11Z"/>
    </clipPath>
    <clipPath id="clippath-1">
      <path id="RRibbon-2" data-name="RRibbon" class="cls-3" d="M52.53,101.14l7.97-43.25-.77-.22c-4.63-1.35-9.26-2.7-13.89-4.06l-.77-.22-16.56,40.74-2.68,6.6c-.13.33.29.69.71.61,2.74-.49,6.25-1.42,9.79-3.24,1.86-.91,3.44-1.97,4.8-3.1.09-.08.26-.03.29.09.54,1.69,1.3,3.43,2.38,5.2,2,3.43,4.46,6.11,6.5,8,.32.29.87.21.93-.13l1.29-7Z"/>
    </clipPath>
    <clipPath id="clippath-2">
      <path class="cls-2" d="M58,78.5c-13.79,0-25-11.21-25-25s11.21-25,25-25,25,11.21,25,25-11.21,25-25,25ZM58,39.5c-7.72,0-14,6.28-14,14s6.28,14,14,14,14-6.28,14-14-6.28-14-14-14Z"/>
    </clipPath>
  </defs>
  <g>
    <path id="LRibbon" class="cls-10" d="M86.07,77.97l-19.89-33.42c-.54-.91-1.87-1.17-3.02-.6l-12.59,6.25c-1.16.57-1.75,1.79-1.35,2.77l14.58,36.06s.03.08.05.11l.21.42c.22.45.65.78,1.19.93l13.08,3.54h0c.39.1.78.21,1.17.32.52.14,1.13-.16,1.33-.66l.46-1.13h0s5.09-12.54,5.09-12.54c.21-.52.2-1.05-.02-1.5l-.21-.43s-.04-.07-.06-.11Z"/>
    <g class="cls-11">
      <path id="LRibbon-3" data-name="LRibbon" class="cls-5" d="M82.81,70.74l-19.96-33.39c-.54-.91-1.89-1.16-3.09-.56l-12.95,6.43c-1.19.59-1.81,1.82-1.42,2.8l14.51,36.09s.03.08.05.11l.21.42c.22.45.65.78,1.2.92l13.34,3.41h0c.61.16,1.23.31,1.84.47.18.05.39-.06.46-.23l.74-1.75h0s5.35-12.67,5.35-12.67c.22-.52.22-1.06,0-1.51l-.21-.43s-.04-.07-.06-.11Z"/>
    </g>
  </g>
  <g>
    <path id="RRibbon" class="cls-10" d="M52.53,101.14l7.97-43.25-.77-.22c-4.63-1.35-9.26-2.7-13.89-4.06l-.77-.22-16.56,40.74-2.68,6.6c-.13.33.29.69.71.61,2.74-.49,6.25-1.42,9.79-3.24,1.86-.91,3.44-1.97,4.8-3.1.09-.08.26-.03.29.09.54,1.69,1.3,3.43,2.38,5.2,2,3.43,4.46,6.11,6.5,8,.32.29.87.21.93-.13l1.29-7Z"/>
    <g class="cls-8">
      <path id="RRibbon-3" data-name="RRibbon" class="cls-5" d="M56.1,91.14l8.31-45.06-.8-.23c-4.82-1.41-9.65-2.82-14.47-4.23l-.8-.23-17.25,42.45-2.79,6.87c-.14.34.3.72.74.64,2.86-.52,6.51-1.48,10.19-3.38,1.94-.95,3.59-2.05,5.01-3.23.09-.08.27-.03.31.09.56,1.76,1.36,3.57,2.48,5.42,2.08,3.58,4.64,6.36,6.77,8.33.33.31.9.22.97-.14l1.34-7.3Z"/>
    </g>
  </g>
  <g>
    <circle id="Medal" class="cls-1" cx="58" cy="53.5" r="19.5"/>
    <g>
      <path class="cls-6" d="M58,78.5c-13.79,0-25-11.21-25-25s11.21-25,25-25,25,11.21,25,25-11.21,25-25,25ZM58,39.5c-7.72,0-14,6.28-14,14s6.28,14,14,14,14-6.28,14-14-6.28-14-14-14Z"/>
      <g class="cls-7">
        <polygon class="cls-4" points="78.16 15.04 15.79 81.09 25.35 91.79 84.87 20.89 78.16 15.04"/>
        <polygon class="cls-4" points="80 38 38 89 43 91 83 44 80 38"/>
      </g>
    </g>
  </g>
  <text class="cls-9" transform="translate(52.85 60.01)"><tspan x="0" y="0">2</tspan></text>
</svg>