<?xml version="1.0" encoding="UTF-8"?>
<svg id="Refresh" xmlns="http://www.w3.org/2000/svg" viewBox="0 0 128 128">
  <defs>
    <style>
      .cls-1 {
        fill: #fff;
        stroke-width: 0px;
      }
    </style>
  </defs>
  <path class="cls-1" d="M84.93,49.72c0-2.31-20.91-17.72-23.51-17.72-1.21,0-1.54,8.53-1.47,17.72-.07,9.2.26,17.72,1.47,17.72,2.6,0,23.51-15.41,23.51-17.72Z"/>
  <path class="cls-1" d="M73.23,67.29c-.28.74-.13.97-.23,2.71,0,0-.19,3.28-1,6-1.05,3.55-5.63,6.85-10.07,7.37-7.41.85-15.78-5.92-15.42-14,.26-5.65,4.19-10.53,9.58-12.25,2.42-.78,4.72-.76,6.85-.29,0-.7,0-1.4,0-2.11-.03-4.03.01-7.92.18-11.03-1.03-.12-2.07-.19-3.13-.19-15.2,0-27.4,12.79-26.45,28.19.82,13.2,11.56,23.94,24.76,24.76,15.4.96,28.19-11.25,28.19-26.45,0-2.76-.65-5.83-.65-5.83-.47-1.54-.85-2.75-1.85-3.17-.86-.36-1.64.08-5.03,2.08-4.14,2.44-5.21,2.8-5.74,4.21Z"/>
</svg>