<?xml version="1.0" encoding="UTF-8"?>
<svg id="Winning_percentage" data-name="Winning percentage" xmlns="http://www.w3.org/2000/svg" xmlns:xlink="http://www.w3.org/1999/xlink" viewBox="0 0 128 128">
  <defs>
    <style>
      .cls-1 {
        fill: #c65c21;
      }

      .cls-1, .cls-2, .cls-3 {
        stroke-width: 0px;
      }

      .cls-4, .cls-3 {
        fill: #ff7721;
      }

      .cls-5 {
        clip-path: url(#clippath-1);
      }

      .cls-6 {
        clip-path: url(#clippath);
      }

      .cls-2 {
        fill: #fff;
      }
    </style>
    <clipPath id="clippath">
      <rect class="cls-3" x="56.74" y="66" width="12" height="19"/>
    </clipPath>
    <clipPath id="clippath-1">
      <path class="cls-3" d="M84.12,104h-42.77c-.8,0-1.45-.65-1.45-1.45v-7.11c3.34-9.9,12.71-16.56,23.1-16.45,10.2.11,19.29,6.73,22.57,16.45v7.11c0,.8-.65,1.45-1.45,1.45Z"/>
    </clipPath>
  </defs>
  <g>
    <rect class="cls-4" x="56.74" y="66" width="12" height="19"/>
    <g class="cls-6">
      <polygon class="cls-1" points="49 71 73 72 72 77 46 80 49 71"/>
    </g>
  </g>
  <path class="cls-3" d="M93.49,26.83H31.98c-3.45,0-6.25,2.8-6.25,6.25v8.51c0,3.45,2.8,6.25,6.25,6.25h61.51c3.45,0,6.25-2.8,6.25-6.25v-8.51c0-3.45-2.8-6.25-6.25-6.25ZM37.34,42.55v.45h-3.75c-1.98,0-3.59-1.56-3.59-3.49v-5.01c0-1.93,1.61-3.49,3.59-3.49h3.81c-.04,3.81-.06,7.66-.06,11.55ZM95,39.51c0,1.93-1.59,3.49-3.56,3.49h-3.31v-.45c0-3.89-.02-7.74-.06-11.55h3.37c1.97,0,3.56,1.56,3.56,3.49v5.01Z"/>
  <g>
    <path class="cls-4" d="M84.12,104h-42.77c-.8,0-1.45-.65-1.45-1.45v-7.11c3.34-9.9,12.71-16.56,23.1-16.45,10.2.11,19.29,6.73,22.57,16.45v7.11c0,.8-.65,1.45-1.45,1.45Z"/>
    <g class="cls-5">
      <polygon class="cls-1" points="37 95 92 95 93 107 60 108 28 106 37 95"/>
    </g>
  </g>
  <path class="cls-3" d="M69.44,27h-13.25c-10.41,0-18.86,8.44-18.86,18.86v9.29c0,10.41,8.44,18.86,18.86,18.86h13.25c10.33,0,18.7-8.44,18.7-18.86v-9.29c0-10.41-8.37-18.86-18.7-18.86Z"/>
  <g>
    <circle class="cls-2" cx="55.13" cy="44.26" r="4"/>
    <circle class="cls-2" cx="70.35" cy="51.84" r="4"/>
    <path class="cls-2" d="M55.99,65h-3.55c-1.05,0-1.72-1.13-1.21-2.05l16.67-30.23c.24-.44.71-.72,1.21-.72h3.55c1.05,0,1.72,1.13,1.21,2.05l-16.67,30.23c-.24.44-.71.72-1.21.72Z"/>
  </g>
</svg>