<?xml version="1.0" encoding="UTF-8"?>
<svg id="Beach_Indoor" data-name="Beach Indoor" xmlns="http://www.w3.org/2000/svg" xmlns:xlink="http://www.w3.org/1999/xlink" viewBox="0 0 128 128">
  <defs>
    <style>
      .cls-1 {
        fill: url(#linear-gradient);
      }

      .cls-1, .cls-2, .cls-3, .cls-4, .cls-5 {
        stroke-width: 0px;
      }

      .cls-2 {
        fill: #000;
      }

      .cls-6 {
        clip-path: url(#clippath-1);
      }

      .cls-7, .cls-4 {
        fill: #fff;
      }

      .cls-8 {
        clip-path: url(#clippath);
      }

      .cls-3, .cls-9 {
        fill: #ffb942;
      }

      .cls-5 {
        fill: #0e0e73;
      }
    </style>
    <clipPath id="clippath">
      <path id="Beach_half-2" data-name="Beach half" class="cls-4" d="M76.89,44.34c.79-.96,2.2-1.09,3.05-.26,10.68,10.36,11.42,28.06,1.33,40.28-10.09,12.22-27.61,14.83-39.8,6.3-.97-.68-1.11-2.09-.32-3.05l35.73-43.27Z"/>
    </clipPath>
    <linearGradient id="linear-gradient" x1="63.27" y1="93.16" x2="63.85" y2="52.17" gradientUnits="userSpaceOnUse">
      <stop offset="0" stop-color="#f15a24"/>
      <stop offset=".11" stop-color="#f26326"/>
      <stop offset=".28" stop-color="#f67c2f"/>
      <stop offset=".5" stop-color="#fca53b"/>
      <stop offset=".59" stop-color="#ffb942"/>
    </linearGradient>
    <clipPath id="clippath-1">
      <path id="Indoor_half-2" data-name="Indoor half" class="cls-3" d="M35.14,82.63c-.79.96-2.21,1.08-3.07.25-10.78-10.45-11.62-28.22-1.53-40.44s27.7-14.76,40-6.14c.98.69,1.13,2.1.33,3.06l-35.73,43.27Z"/>
    </clipPath>
  </defs>
  <g>
    <path id="Beach_half" data-name="Beach half" class="cls-7" d="M76.89,44.34c.79-.96,2.2-1.09,3.05-.26,10.68,10.36,11.42,28.06,1.33,40.28-10.09,12.22-27.61,14.83-39.8,6.3-.97-.68-1.11-2.09-.32-3.05l35.73-43.27Z"/>
    <g class="cls-8">
      <path class="cls-1" d="M57,66c4.81,1.18,10.16,2.24,16,3,3.87.5,7.54.82,11,1l-3,9c-3.77,1.83-8.82,3.81-15,5-9.62,1.86-17.77,1-23,0,4.67-6,9.33-12,14-18Z"/>
      <path class="cls-5" d="M70,51c8.34,6.25,12.77,16.08,11,25-2.48,12.48-16.91,22.2-33,19,11.33,1,22.67,2,34,3l9-27v-18l-11-11-3-1-7,10Z"/>
    </g>
  </g>
  <g>
    <path id="Indoor_half" data-name="Indoor half" class="cls-9" d="M35.14,82.63c-.79.96-2.21,1.08-3.07.25-10.78-10.45-11.62-28.22-1.53-40.44s27.7-14.76,40-6.14c.98.69,1.13,2.1.33,3.06l-35.73,43.27Z"/>
    <g class="cls-6">
      <path class="cls-5" d="M45,48c1.75,1.52,4.4,3.48,8,5,2.66,1.12,5.08,1.7,7,2-2.67,3.67-5.33,7.33-8,11-.93-.52-1.95-1.17-3-2-1.74-1.37-3.05-2.79-4-4-.96.37-7.64,3.07-10,9-.5,1.26-1.35,3.39-1,6,.16,1.16.53,2.43,1,4,.38,1.25.74,2.28,1,3v4c-9.34-5.87-13.04-15.91-10-23,2.15-5.01,7.1-7.26,9-8,1.54-6.29,2.16-11.12,2-13-.05-.62-.15-1.86-1-3-.37-.49-.76-.82-1-1,.44-.94,1.07-1.99,2-3,3.54-3.83,8.63-4,10-4,.93.23,2.27.75,3,2,.4.69.99,2.25-2,9-.69,1.56-1.67,3.62-3,6Z"/>
    </g>
  </g>
  <rect id="line_in_the_middle" data-name="line in the middle" class="cls-2" x="55" y="14" width="2.2" height="99" rx="1.1" ry="1.1" transform="translate(53.12 -21.18) rotate(39.45)"/>
</svg>