<?xml version="1.0" encoding="UTF-8"?>
<svg id="EXPORT_BOARD" data-name="EXPORT BOARD" xmlns="http://www.w3.org/2000/svg" xmlns:xlink="http://www.w3.org/1999/xlink" viewBox="0 0 155.75 128">
  <defs>
    <style>
      .cls-1 {
        clip-path: url(#clippath-2);
      }

      .cls-2 {
        clip-path: url(#clippath-1);
      }

      .cls-3 {
        fill: #640011;
      }

      .cls-3, .cls-4, .cls-5, .cls-6 {
        stroke-width: 0px;
      }

      .cls-4 {
        fill: #cbdfff;
      }

      .cls-7, .cls-6 {
        fill: #c00010;
      }

      .cls-8, .cls-5 {
        fill: #fff;
      }

      .cls-9 {
        clip-path: url(#clippath);
      }

      .cls-10 {
        clip-path: url(#clippath-3);
      }
    </style>
    <clipPath id="clippath">
      <rect class="cls-6" x="27.36" y="21.98" width="120.68" height="105.59" rx="4.41" ry="4.41"/>
    </clipPath>
    <clipPath id="clippath-1">
      <rect class="cls-5" x="55.37" y=".43" width="12.93" height="28.01" rx="5.32" ry="5.32"/>
    </clipPath>
    <clipPath id="clippath-2">
      <rect class="cls-5" x="111.4" y=".43" width="12.93" height="28.01" rx="5.32" ry="5.32"/>
    </clipPath>
    <clipPath id="clippath-3">
      <path class="cls-5" d="M27.36,52.15c-.73,8.49-2.76,20.79-8.62,34.48-5.34,12.48-12.01,21.79-17.24,28.01h124.99c2.28-1.17,5.55-3.16,8.62-6.46,5.37-5.76,7.14-12.25,8.62-19.39,1.77-8.5,3.75-20.88,4.31-36.63H27.36Z"/>
    </clipPath>
  </defs>
  <g id="Calendar-2" data-name="Calendar">
    <path class="cls-3" d="M135.11,24.13c1.41-.74,4.34-2.04,8.31-2.15,3.2-.09,5.52.65,6.31.92,1,.34,2.41.84,3.46,1.98.84.9,1.32,2.01,1.32,3.18v93.39c-.02.77-.23,2.06-1.35,3.21-1.03,1.06-2.27,1.53-3.52,1.97-1.15.4-3.28,1-6.21.95h-5.54c-.92-34.48-1.85-68.96-2.77-103.44Z"/>
    <g>
      <rect class="cls-7" x="27.36" y="21.98" width="120.68" height="105.59" rx="4.41" ry="4.41"/>
      <g class="cls-9">
        <rect class="cls-5" x="14.43" y="52.15" width="140.07" height="75.42" rx="4.02" ry="4.02"/>
        <polygon class="cls-4" points="11.18 120.93 155.68 119.46 155.6 54.4 39.23 52.71 16.07 102.79 11.18 120.93"/>
      </g>
    </g>
    <g>
      <rect class="cls-8" x="55.37" y=".43" width="12.93" height="28.01" rx="5.32" ry="5.32"/>
      <g class="cls-2">
        <path class="cls-4" d="M53.22,4.74c2.84-1.06,7.89-2.44,10.77,0,1.72,1.45,2.03,3.72,2.15,12.93.07,5.17.05,9.58,0,12.93,2.15-7.18,4.31-14.37,6.46-21.55V-3.88l-15.08-2.15-4.31,8.62v2.15Z"/>
      </g>
    </g>
    <g>
      <rect class="cls-8" x="111.4" y=".43" width="12.93" height="28.01" rx="5.32" ry="5.32"/>
      <g class="cls-1">
        <path class="cls-4" d="M109.25,4.74c2.84-1.06,7.89-2.44,10.77,0,1.72,1.45,2.03,3.72,2.15,12.93.07,5.17.05,9.58,0,12.93,2.15-7.18,4.31-14.37,6.46-21.55V-3.88l-15.08-2.15-4.31,8.62v2.15Z"/>
      </g>
    </g>
    <g>
      <path class="cls-8" d="M27.36,52.15c-.73,8.49-2.76,20.79-8.62,34.48-5.34,12.48-12.01,21.79-17.24,28.01h124.99c2.28-1.17,5.55-3.16,8.62-6.46,5.37-5.76,7.14-12.25,8.62-19.39,1.77-8.5,3.75-20.88,4.31-36.63H27.36Z"/>
      <g class="cls-10">
        <path class="cls-4" d="M9.68,76l98.38,8.78c2.71.24,2.79,4.17.09,4.52L.98,103.37c-1.71.22-3.04-1.46-2.42-3.07l8.78-22.84c.36-.95,1.31-1.54,2.33-1.45Z"/>
      </g>
    </g>
  </g>
</svg>