<?xml version="1.0" encoding="UTF-8"?>
<svg id="EXPORT_BOARD" data-name="EXPORT BOARD" xmlns="http://www.w3.org/2000/svg" xmlns:xlink="http://www.w3.org/1999/xlink" viewBox="0 0 128 128">
  <defs>
    <style>
      .cls-1 {
        clip-path: url(#clippath-2);
      }

      .cls-2 {
        fill: #c05e80;
      }

      .cls-2, .cls-3, .cls-4, .cls-5 {
        stroke-width: 0px;
      }

      .cls-6 {
        clip-path: url(#clippath-1);
      }

      .cls-7, .cls-3 {
        fill: #d67488;
      }

      .cls-8 {
        clip-path: url(#clippath);
      }

      .cls-4 {
        fill: #c3234e;
      }

      .cls-5 {
        fill: #fff;
      }
    </style>
    <clipPath id="clippath">
      <path class="cls-3" d="M113.59,27.82c-4.45-1.45-8.36-1.69-11.12-1.62-.49.01-.9-.39-.89-.89.08-2.75-.16-6.67-1.61-11.12-2-6.16-5.38-10.45-7.63-12.84-.34-.37-.91-.37-1.22,0-3.82,4.51-8.5,11.61-11.01,21.79-1.21,4.91-1.66,9.56-1.75,13.6,0,.23.09.45.26.62l5.89,5.89,5.73,5.73c.16.16.38.26.61.26,4.06-.01,8.78-.4,13.78-1.58,10.3-2.43,17.4-7.19,21.81-10.99.36-.31.35-.87-.01-1.21-2.39-2.25-6.68-5.63-12.84-7.64Z"/>
    </clipPath>
    <clipPath id="clippath-1">
      <path class="cls-3" d="M28.33,113.02c-1.47-4.43-1.73-8.32-1.68-11.06.01-.49-.39-.89-.88-.88-2.73.05-6.63-.21-11.06-1.69-6.14-2.04-10.41-5.43-12.81-7.68-.36-.34-.37-.9-.02-1.2,4.45-3.76,11.47-8.35,21.57-10.76,4.87-1.16,9.48-1.58,13.49-1.63.23,0,.45.09.61.26l5.89,5.89,5.73,5.73c.16.16.26.38.26.6.01,4.03-.34,8.71-1.48,13.66-2.35,10.21-7.03,17.22-10.77,21.57-.3.35-.86.34-1.19-.02-2.25-2.39-5.64-6.67-7.67-12.82Z"/>
    </clipPath>
    <clipPath id="clippath-2">
      <ellipse class="cls-3" cx="64.11" cy="63.65" rx="31.8" ry="25.44" transform="translate(-26.23 63.94) rotate(-44.98)"/>
    </clipPath>
  </defs>
  <g>
    <path class="cls-7" d="M113.59,27.82c-4.45-1.45-8.36-1.69-11.12-1.62-.49.01-.9-.39-.89-.89.08-2.75-.16-6.67-1.61-11.12-2-6.16-5.38-10.45-7.63-12.84-.34-.37-.91-.37-1.22,0-3.82,4.51-8.5,11.61-11.01,21.79-1.21,4.91-1.66,9.56-1.75,13.6,0,.23.09.45.26.62l5.89,5.89,5.73,5.73c.16.16.38.26.61.26,4.06-.01,8.78-.4,13.78-1.58,10.3-2.43,17.4-7.19,21.81-10.99.36-.31.35-.87-.01-1.21-2.39-2.25-6.68-5.63-12.84-7.64Z"/>
    <g class="cls-8">
      <path class="cls-4" d="M85.56,3.99c-.16.16-.24.37-.23.6.19,4.47.98,10.59,3.44,17.77,1.45,4.25,3.18,7.95,4.83,11.02.08.14.18.26.32.34,3.34,2.03,7.51,4.25,12.37,6.18,6.59,2.62,12.33,3.85,16.68,4.46.25.04.5-.05.67-.23l7.51-7.5c.32-.32.3-.86-.04-1.19-12.97-12.3-25.94-24.61-38.91-36.91-.33-.32-.85-.32-1.16-.01l-5.48,5.47Z"/>
      <polygon class="cls-2" points="72.37 23.71 111.1 51.18 92.81 60 66.82 33.99 72.37 23.71"/>
    </g>
  </g>
  <g>
    <path class="cls-7" d="M28.33,113.02c-1.47-4.43-1.73-8.32-1.68-11.06.01-.49-.39-.89-.88-.88-2.73.05-6.63-.21-11.06-1.69-6.14-2.04-10.41-5.43-12.81-7.68-.36-.34-.37-.9-.02-1.2,4.45-3.76,11.47-8.35,21.57-10.76,4.87-1.16,9.48-1.58,13.49-1.63.23,0,.45.09.61.26l5.89,5.89,5.73,5.73c.16.16.26.38.26.6.01,4.03-.34,8.71-1.48,13.66-2.35,10.21-7.03,17.22-10.77,21.57-.3.35-.86.34-1.19-.02-2.25-2.39-5.64-6.67-7.67-12.82Z"/>
    <g class="cls-6">
      <path class="cls-4" d="M5.14,84.36c.15-.15.36-.23.58-.22,4.43.23,10.52,1.06,17.67,3.56,4.23,1.48,7.92,3.22,10.98,4.89.14.08.25.18.33.32,2.04,3.34,4.27,7.49,6.22,12.34,2.64,6.57,3.91,12.27,4.54,16.6.04.25-.05.48-.22.65l-7.42,7.41c-.31.31-.84.29-1.16-.05C24.36,116.86,12.05,103.88-.26,90.89c-.31-.33-.32-.83-.02-1.13l5.41-5.41Z"/>
      <path class="cls-2" d="M17.58,78.46l33.93,22.81,8.91-8.9s-28.16-21.49-25.86-21.42c2.3.07-16.98,7.51-16.98,7.51Z"/>
    </g>
  </g>
  <g>
    <ellipse class="cls-7" cx="64.11" cy="63.65" rx="31.8" ry="25.44" transform="translate(-26.23 63.94) rotate(-44.98)"/>
    <g class="cls-1">
      <path class="cls-4" d="M79.59,113.38c-1.03-6.69-4.87-25.81-21.26-42.56-17.1-17.48-37.15-21.45-43.73-22.48,5.52-5.51,11.04-11.03,16.55-16.54,6.57,1.02,26.63,4.99,43.73,22.48,16.39,16.75,20.23,35.87,21.26,42.56-5.52,5.51-11.04,11.03-16.55,16.54Z"/>
    </g>
  </g>
  <g>
    <path class="cls-5" d="M48.94,58.05c-1.49-1.13-2.21-1.64-3.6-2.6,4.26-4.25,6.39-6.38,10.64-10.63,2.32,1.05,3.39,1.63,5.33,2.8-.92.76-1.38,1.14-2.3,1.89-1.13-.7-1.72-1.05-2.95-1.71-1.02.93-1.54,1.4-2.56,2.34,1.05.6,1.56.91,2.55,1.55-.91.76-1.37,1.13-2.28,1.89-.93-.63-1.41-.93-2.38-1.52-1.05.96-1.58,1.44-2.63,2.4.99.65,1.48.99,2.47,1.71-.92.75-1.38,1.13-2.3,1.88Z"/>
    <path class="cls-5" d="M55.29,63.26c-.71-.63-1.06-.94-1.77-1.54,1.28-1.73,1.92-2.58,3.19-4.28.12-.16.37-.42.75-.79,0,0-.01,0-.02-.01-.22.14-.58.34-1.08.59-2.17.96-3.25,1.44-5.38,2.41-.69-.55-1.03-.81-1.7-1.32,3.33-1.45,5.08-2.15,8.59-3.54,1.83-2.65,2.72-3.96,4.32-6.62.89.56,1.32.85,2.13,1.41-1.15,1.52-1.74,2.28-2.94,3.81-.24.3-.54.64-.91,1.02,0,0,.01,0,.02.01.3-.17.75-.41,1.37-.73,2-.89,3-1.33,4.99-2.24.64.51.94.76,1.52,1.25-3.29,1.5-5,2.2-8.41,3.61-1.87,2.73-2.83,4.1-4.66,6.96Z"/>
    <path class="cls-5" d="M70.9,59.43c-.8-.87-1.43-1.52-1.97-2.05-3.96,3.76-5.93,5.64-9.89,9.4-.61-.6-.92-.9-1.53-1.48,4.12-3.6,6.18-5.4,10.31-9-.58-.55-.89-.83-1.55-1.4.96-.78,1.44-1.16,2.4-1.94,1.76,1.53,2.2,1.88,4.45,4.37-.89.84-1.34,1.26-2.23,2.09Z"/>
    <path class="cls-5" d="M66.76,75.32c-.55-.68-.83-1.03-1.41-1.72.9-1.53,1.35-2.29,2.24-3.85.17-.29.32-.56.44-.8.13-.24.22-.46.29-.66.07-.2.1-.37.11-.52,0-.15-.04-.27-.12-.37-.14-.17-.22-.26-.37-.43-1.87,1.7-2.81,2.54-4.68,4.24-.55-.61-.83-.92-1.41-1.54,4.88-4.51,7.32-6.77,12.21-11.28.95,1.11,1.39,1.67,2.21,2.76,1.38,1.85.8,3.68-1.38,5.62-.42.37-.83.68-1.24.92-.41.24-.81.42-1.19.54-.39.12-.76.17-1.12.16s-.69-.08-.99-.22c-.01.01-.02.02-.03.03.03.16.01.34-.04.55s-.13.44-.22.68c-.1.24-.21.49-.34.74-.13.25-.26.5-.39.73-1.02,1.79-1.54,2.67-2.55,4.42ZM73.43,62.01c-1.36,1.23-2.04,1.85-3.4,3.08.24.29.35.43.58.71.28.35.67.48,1.18.39.51-.09,1.02-.37,1.53-.82,1.06-.95,1.32-1.81.72-2.59-.24-.31-.36-.46-.6-.77Z"/>
    <path class="cls-5" d="M71.33,81.46c-.4-.59-.61-.89-1.05-1.49.86-1.11,1.29-1.66,2.17-2.77-.59-.88-.9-1.33-1.57-2.25-1.17.75-1.75,1.13-2.94,1.88-.49-.63-.74-.95-1.26-1.59,5.56-3.29,8.27-4.88,13.43-8.11.39.7.57,1.04.9,1.69-4.05,5.05-6.01,7.55-9.68,12.65ZM74.18,75.07c1.34-1.67,2.02-2.51,3.39-4.19.26-.31.58-.66.96-1.05,0-.01-.01-.02-.02-.04-.34.29-.7.56-1.06.8-1.71,1.14-2.58,1.71-4.34,2.85.45.66.66.99,1.07,1.62Z"/>
  </g>
</svg>