<?xml version="1.0" encoding="UTF-8"?>
<svg id="Extra_voting_topic" data-name="Extra voting topic" xmlns="http://www.w3.org/2000/svg" xmlns:xlink="http://www.w3.org/1999/xlink" viewBox="0 0 128 128">
  <defs>
    <style>
      .cls-1 {
        clip-path: url(#clippath-2);
      }

      .cls-2 {
        fill: #c05e80;
      }

      .cls-2, .cls-3, .cls-4, .cls-5 {
        stroke-width: 0px;
      }

      .cls-6 {
        clip-path: url(#clippath-1);
      }

      .cls-7, .cls-3 {
        fill: #d67488;
      }

      .cls-8 {
        clip-path: url(#clippath);
      }

      .cls-4 {
        fill: #c3234e;
      }

      .cls-5 {
        fill: #fff;
      }
    </style>
    <clipPath id="clippath">
      <path class="cls-3" d="M73.17,26.57c-2.49,1.33-4.25,2.95-5.38,4.21-.2.22-.55.22-.75,0-1.13-1.25-2.89-2.88-5.38-4.21-3.45-1.84-6.69-2.24-8.66-2.31-.3-.01-.54.24-.52.54.3,3.69,1.32,8.9,4.57,14.51,1.57,2.71,3.34,4.96,5.01,6.79.1.1.23.16.37.16h9.83c.14,0,.27-.05.37-.15,1.71-1.8,3.54-4.06,5.16-6.8,3.33-5.64,4.31-10.88,4.57-14.52.02-.3-.22-.54-.52-.53-1.96.07-5.21.47-8.66,2.31Z"/>
    </clipPath>
    <clipPath id="clippath-1">
      <path class="cls-3" d="M73.17,100.68c-2.5-1.33-4.26-2.96-5.39-4.21-.2-.22-.54-.22-.74,0-1.13,1.25-2.89,2.88-5.39,4.21-3.46,1.84-6.7,2.24-8.66,2.31-.3.01-.54-.23-.51-.53.29-3.69,1.32-8.9,4.57-14.52,1.57-2.71,3.34-4.97,5.01-6.79.1-.1.23-.16.37-.16h9.83c.14,0,.27.05.36.15,1.71,1.8,3.54,4.06,5.16,6.8,3.33,5.64,4.31,10.89,4.57,14.52.02.3-.22.54-.51.53-1.96-.07-5.21-.46-8.67-2.31Z"/>
    </clipPath>
    <clipPath id="clippath-2">
      <ellipse class="cls-3" cx="67.41" cy="63.52" rx="15.22" ry="19.02"/>
    </clipPath>
  </defs>
  <g>
    <path class="cls-7" d="M73.17,26.57c-2.49,1.33-4.25,2.95-5.38,4.21-.2.22-.55.22-.75,0-1.13-1.25-2.89-2.88-5.38-4.21-3.45-1.84-6.69-2.24-8.66-2.31-.3-.01-.54.24-.52.54.3,3.69,1.32,8.9,4.57,14.51,1.57,2.71,3.34,4.96,5.01,6.79.1.1.23.16.37.16h9.83c.14,0,.27-.05.37-.15,1.71-1.8,3.54-4.06,5.16-6.8,3.33-5.64,4.31-10.88,4.57-14.52.02-.3-.22-.54-.52-.53-1.96.07-5.21.47-8.66,2.31Z"/>
    <g class="cls-8">
      <path class="cls-4" d="M51.24,28.43c0,.14.05.27.15.37,1.97,1.89,4.9,4.25,8.98,6.34,2.41,1.23,4.71,2.11,6.71,2.74.09.03.19.03.28,0,2.27-.58,4.97-1.44,7.85-2.74,3.89-1.76,6.84-3.75,8.94-5.41.12-.1.19-.24.19-.4v-6.64c0-.29-.24-.52-.52-.51-10.69.3-21.38.6-32.07.9-.28,0-.49.23-.49.51v4.85Z"/>
      <polygon class="cls-2" points="54 43 82 38 78 50 56 50 54 43"/>
    </g>
  </g>
  <g>
    <path class="cls-7" d="M73.17,100.68c-2.5-1.33-4.26-2.96-5.39-4.21-.2-.22-.54-.22-.74,0-1.13,1.25-2.89,2.88-5.39,4.21-3.46,1.84-6.7,2.24-8.66,2.31-.3.01-.54-.23-.51-.53.29-3.69,1.32-8.9,4.57-14.52,1.57-2.71,3.34-4.97,5.01-6.79.1-.1.23-.16.37-.16h9.83c.14,0,.27.05.36.15,1.71,1.8,3.54,4.06,5.16,6.8,3.33,5.64,4.31,10.89,4.57,14.52.02.3-.22.54-.51.53-1.96-.07-5.21-.46-8.67-2.31Z"/>
    <g class="cls-6">
      <path class="cls-4" d="M51.24,98.23c0-.14.05-.26.15-.36,1.97-1.89,4.9-4.25,8.98-6.34,2.41-1.24,4.71-2.11,6.71-2.74.09-.03.18-.03.27,0,2.27.58,4.97,1.44,7.85,2.75,3.9,1.76,6.85,3.75,8.94,5.41.12.1.19.24.19.39v6.66c0,.28-.23.51-.51.5-10.7-.3-21.4-.6-32.09-.9-.27,0-.49-.23-.49-.5v-4.86Z"/>
      <path class="cls-2" d="M54,90l24-5v-8s-21,3-20,2-4,11-4,11Z"/>
    </g>
  </g>
  <g>
    <ellipse class="cls-7" cx="67.41" cy="63.52" rx="15.22" ry="19.02"/>
    <g class="cls-1">
      <path class="cls-4" d="M95,78c-3.27-2.39-12.98-8.85-27-9-14.63-.16-24.79,6.65-28,9v-14c3.21-2.35,13.37-9.16,28-9,14.02.15,23.73,6.61,27,9v14Z"/>
    </g>
  </g>
  <g>
    <path class="cls-5" d="M58.62,67.57c-1.11.15-1.63.24-2.62.43v-9c1.43-.54,2.12-.74,3.44-1.07-.07.71-.1,1.06-.17,1.77-.77.18-1.17.28-1.97.53-.04.83-.06,1.24-.09,2.07.7-.19,1.05-.27,1.73-.42-.07.7-.1,1.06-.16,1.76-.66.13-.99.2-1.65.36-.04.85-.06,1.28-.1,2.13.69-.14,1.05-.21,1.77-.32-.07.71-.1,1.06-.17,1.77Z"/>
    <path class="cls-5" d="M63.51,67.09c-.57.03-.85.05-1.4.1-.19-1.27-.28-1.9-.46-3.16-.02-.12-.02-.33-.02-.65,0,0,0,0-.01,0-.04.15-.1.39-.2.71-.51,1.32-.77,1.98-1.26,3.3-.52.06-.78.09-1.28.16.79-2.02,1.24-3.06,2.13-5.13-.35-1.89-.53-2.83-.97-4.62.61-.14.91-.2,1.5-.3.16,1.13.23,1.7.37,2.85.03.23.04.5.05.82,0,0,0,0,.01,0,.05-.2.14-.49.27-.89.47-1.22.71-1.83,1.16-3.06.49-.06.72-.08,1.17-.11-.75,2.03-1.18,3.05-2.03,5.09.36,1.95.54,2.93.98,4.91Z"/>
    <path class="cls-5" d="M68.5,58.87c-.71-.03-1.25-.04-1.7-.03-.08,3.26-.12,4.9-.2,8.16-.51,0-.77,0-1.27.02.22-3.27.33-4.9.55-8.17-.48.01-.73.03-1.25.06.08-.73.11-1.1.19-1.83,1.39-.1,1.73-.14,3.73-.04-.02.73-.03,1.1-.06,1.83Z"/>
    <path class="cls-5" d="M73.47,67.34c-.52-.06-.79-.08-1.32-.13-.27-1.02-.4-1.54-.68-2.58-.05-.2-.1-.37-.15-.53-.05-.16-.1-.29-.16-.4-.05-.11-.11-.2-.17-.26-.06-.06-.13-.1-.21-.1-.13-.01-.2-.02-.34-.03-.07,1.51-.11,2.26-.19,3.77-.49-.03-.74-.04-1.25-.05.16-3.97.23-5.96.39-9.93.88.07,1.3.12,2.1.23,1.37.2,1.9,1.22,1.8,2.96-.02.33-.07.64-.14.91-.07.27-.16.52-.28.73-.11.21-.25.39-.4.54s-.33.26-.51.33c0,.01,0,.02,0,.03.08.05.15.14.22.25s.13.24.19.38c.06.14.12.3.17.46.05.16.1.32.14.48.32,1.19.48,1.78.79,2.95ZM70.65,58.89c-.05,1.1-.08,1.65-.14,2.74.22.02.33.03.55.05.27.03.49-.08.66-.34.18-.26.28-.59.3-.99.05-.85-.21-1.32-.79-1.4-.23-.03-.34-.04-.58-.07Z"/>
    <path class="cls-5" d="M78,68c-.42-.08-.64-.12-1.07-.19-.11-.83-.16-1.25-.26-2.09-.62-.12-.94-.18-1.62-.29-.18.81-.27,1.22-.45,2.04-.47-.06-.72-.09-1.21-.14.96-3.74,1.43-5.56,2.25-9.11.46.13.68.2,1.09.34.43,3.85.65,5.73,1.26,9.44ZM76.5,64.09c-.14-1.27-.21-1.92-.34-3.21-.02-.24-.04-.52-.04-.85,0,0-.01,0-.02,0-.02.27-.06.53-.11.79-.24,1.21-.37,1.82-.63,3.04.47.09.7.14,1.14.23Z"/>
  </g>
</svg>