<?xml version="1.0" encoding="UTF-8"?>
<svg id="Calendar" xmlns="http://www.w3.org/2000/svg" xmlns:xlink="http://www.w3.org/1999/xlink" viewBox="0 0 128 128">
  <defs>
    <style>
      .cls-1 {
        clip-path: url(#clippath-2);
      }

      .cls-2 {
        clip-path: url(#clippath-1);
      }

      .cls-3 {
        fill: #640011;
      }

      .cls-3, .cls-4, .cls-5, .cls-6 {
        stroke-width: 0px;
      }

      .cls-4 {
        fill: #cbdfff;
      }

      .cls-7, .cls-6 {
        fill: #c00010;
      }

      .cls-8, .cls-5 {
        fill: #fff;
      }

      .cls-9 {
        clip-path: url(#clippath);
      }

      .cls-10 {
        clip-path: url(#clippath-3);
      }
    </style>
    <clipPath id="clippath">
      <rect class="cls-6" x="37" y="45" width="56" height="49" rx="2.49" ry="2.49"/>
    </clipPath>
    <clipPath id="clippath-1">
      <rect class="cls-5" x="50" y="35" width="6" height="13" rx="3" ry="3"/>
    </clipPath>
    <clipPath id="clippath-2">
      <rect class="cls-5" x="76" y="35" width="6" height="13" rx="3" ry="3"/>
    </clipPath>
    <clipPath id="clippath-3">
      <path class="cls-5" d="M37,59c-.34,3.94-1.28,9.65-4,16-2.48,5.79-5.57,10.11-8,13h58c1.06-.54,2.57-1.47,4-3,2.49-2.67,3.31-5.69,4-9,.82-3.94,1.74-9.69,2-17h-56Z"/>
    </clipPath>
  </defs>
  <path class="cls-3" d="M87,46c.65-.34,2.02-.95,3.86-1,1.49-.04,2.56.3,2.93.43.46.16,1.12.39,1.6.92.39.42.61.93.61,1.47v43.34c-.01.36-.11.95-.63,1.49-.48.49-1.05.71-1.63.91-.53.19-1.52.47-2.88.44h-2.57c-.43-16-.86-32-1.29-48Z"/>
  <g>
    <rect class="cls-7" x="37" y="45" width="56" height="49" rx="2.49" ry="2.49"/>
    <g class="cls-9">
      <rect class="cls-5" x="31" y="59" width="65" height="35" rx="2.26" ry="2.26"/>
      <polygon class="cls-4" points="29.49 90.92 96.55 90.24 96.51 60.05 42.51 59.26 31.76 82.5 29.49 90.92"/>
    </g>
  </g>
  <g>
    <rect class="cls-8" x="50" y="35" width="6" height="13" rx="3" ry="3"/>
    <g class="cls-2">
      <path class="cls-4" d="M49,37c1.32-.49,3.66-1.13,5,0,.8.67.94,1.72,1,6,.03,2.4.02,4.44,0,6,1-3.33,2-6.67,3-10v-6l-7-1-2,4v1Z"/>
    </g>
  </g>
  <g>
    <rect class="cls-8" x="76" y="35" width="6" height="13" rx="3" ry="3"/>
    <g class="cls-1">
      <path class="cls-4" d="M75,37c1.32-.49,3.66-1.13,5,0,.8.67.94,1.72,1,6,.03,2.4.02,4.44,0,6,1-3.33,2-6.67,3-10v-6l-7-1-2,4v1Z"/>
    </g>
  </g>
  <g>
    <path class="cls-8" d="M37,59c-.34,3.94-1.28,9.65-4,16-2.48,5.79-5.57,10.11-8,13h58c1.06-.54,2.57-1.47,4-3,2.49-2.67,3.31-5.69,4-9,.82-3.94,1.74-9.69,2-17h-56Z"/>
    <g class="cls-10">
      <path class="cls-4" d="M28.79,70.07l45.66,4.08c1.26.11,1.29,1.94.04,2.1l-49.73,6.52c-.79.1-1.41-.68-1.12-1.43l4.08-10.6c.17-.44.61-.71,1.08-.67Z"/>
    </g>
  </g>
</svg>