<?xml version="1.0" encoding="UTF-8"?>
<svg id="EXPORT_BOARD" data-name="EXPORT BOARD" xmlns="http://www.w3.org/2000/svg" xmlns:xlink="http://www.w3.org/1999/xlink" viewBox="0 0 84 128">
  <defs>
    <style>
      .cls-1 {
        fill: #d2542d;
      }

      .cls-1, .cls-2, .cls-3, .cls-4, .cls-5 {
        stroke-width: 0px;
      }

      .cls-6, .cls-5 {
        fill: #a4001d;
      }

      .cls-7 {
        clip-path: url(#clippath-2);
      }

      .cls-2, .cls-8 {
        fill: #9c251a;
      }

      .cls-9 {
        clip-path: url(#clippath-1);
      }

      .cls-3 {
        fill: #27001d;
      }

      .cls-10 {
        clip-path: url(#clippath);
      }

      .cls-4 {
        fill: #b63f31;
      }

      .cls-11 {
        fill: #791d0f;
        font-family: OpenSans-CondensedBold, 'Open Sans Condensed';
        font-size: 27.32px;
        font-weight: 700;
      }
    </style>
    <clipPath id="clippath">
      <path id="LRibbon-2" data-name="LRibbon" class="cls-5" d="M82.95,77l-27.16-55.29c-.74-1.5-2.55-1.94-4.13-.99l-17.2,10.34c-1.58.95-2.39,2.96-1.85,4.58l19.92,59.64c.02.06.04.13.07.19l.29.7c.31.75.88,1.29,1.62,1.53l17.86,5.86h0c.53.17,1.07.35,1.6.52.7.23,1.54-.27,1.81-1.09l.62-1.87h0s6.95-20.75,6.95-20.75c.29-.85.28-1.74-.03-2.49l-.29-.72c-.03-.06-.05-.12-.08-.18Z"/>
    </clipPath>
    <clipPath id="clippath-1">
      <path id="RRibbon-2" data-name="RRibbon" class="cls-5" d="M37.14,115.33l10.89-71.55-1.05-.37c-6.32-2.24-12.65-4.47-18.97-6.71l-1.05-.37L4.34,103.72l-3.66,10.91c-.18.54.39,1.14.97,1.01,3.74-.82,8.54-2.35,13.36-5.36,2.54-1.51,4.7-3.26,6.56-5.13.12-.13.35-.04.4.14.73,2.79,1.78,5.68,3.25,8.6,2.73,5.68,6.09,10.1,8.88,13.23.43.48,1.18.35,1.27-.22l1.76-11.59Z"/>
    </clipPath>
    <clipPath id="clippath-2">
      <path class="cls-2" d="M44.62,76.12c-20.71,0-37.56-16.85-37.56-37.56S23.9,1,44.62,1s37.56,16.85,37.56,37.56-16.85,37.56-37.56,37.56ZM44.62,17.53c-11.6,0-21.03,9.44-21.03,21.03s9.44,21.03,21.03,21.03,21.03-9.44,21.03-21.03-9.44-21.03-21.03-21.03Z"/>
    </clipPath>
  </defs>
  <g id="B">
    <g>
      <path id="LRibbon" class="cls-6" d="M82.95,77l-27.16-55.29c-.74-1.5-2.55-1.94-4.13-.99l-17.2,10.34c-1.58.95-2.39,2.96-1.85,4.58l19.92,59.64c.02.06.04.13.07.19l.29.7c.31.75.88,1.29,1.62,1.53l17.86,5.86h0c.53.17,1.07.35,1.6.52.7.23,1.54-.27,1.81-1.09l.62-1.87h0s6.95-20.75,6.95-20.75c.29-.85.28-1.74-.03-2.49l-.29-.72c-.03-.06-.05-.12-.08-.18Z"/>
      <g class="cls-10">
        <path id="LRibbon-3" data-name="LRibbon" class="cls-3" d="M78.5,65.04L51.23,9.81c-.74-1.5-2.59-1.91-4.21-.93l-17.69,10.63c-1.63.98-2.47,3-1.94,4.63l19.81,59.71c.02.06.04.13.07.19l.29.7c.31.75.89,1.29,1.64,1.52l18.21,5.64h0c.84.26,1.68.52,2.52.78.25.08.53-.09.63-.38l1.01-2.9h0s7.3-20.96,7.3-20.96c.3-.86.3-1.76,0-2.5l-.29-.72c-.03-.06-.05-.12-.08-.18Z"/>
      </g>
    </g>
    <g>
      <path id="RRibbon" class="cls-6" d="M37.14,115.33l10.89-71.55-1.05-.37c-6.32-2.24-12.65-4.47-18.97-6.71l-1.05-.37L4.34,103.72l-3.66,10.91c-.18.54.39,1.14.97,1.01,3.74-.82,8.54-2.35,13.36-5.36,2.54-1.51,4.7-3.26,6.56-5.13.12-.13.35-.04.4.14.73,2.79,1.78,5.68,3.25,8.6,2.73,5.68,6.09,10.1,8.88,13.23.43.48,1.18.35,1.27-.22l1.76-11.59Z"/>
      <g class="cls-9">
        <path id="RRibbon-3" data-name="RRibbon" class="cls-3" d="M42.03,98.78l11.34-74.54-1.09-.39c-6.59-2.33-13.17-4.66-19.76-6.99l-1.09-.39L7.85,86.7l-3.82,11.37c-.19.56.41,1.19,1.01,1.06,3.9-.85,8.89-2.45,13.92-5.58,2.64-1.57,4.9-3.4,6.84-5.35.13-.13.37-.05.42.15.77,2.91,1.86,5.91,3.39,8.96,2.85,5.92,6.34,10.52,9.25,13.78.45.5,1.23.37,1.32-.23l1.84-12.07Z"/>
      </g>
    </g>
    <g>
      <circle id="Medal" class="cls-1" cx="44.62" cy="38.56" r="29.3"/>
      <g>
        <path class="cls-8" d="M44.62,76.12c-20.71,0-37.56-16.85-37.56-37.56S23.9,1,44.62,1s37.56,16.85,37.56,37.56-16.85,37.56-37.56,37.56ZM44.62,17.53c-11.6,0-21.03,9.44-21.03,21.03s9.44,21.03,21.03,21.03,21.03-9.44,21.03-21.03-9.44-21.03-21.03-21.03Z"/>
        <g class="cls-7">
          <polygon class="cls-4" points="77.42 -23.61 -16.29 75.63 -1.93 91.71 87.49 -14.81 77.42 -23.61"/>
          <polygon class="cls-4" points="80.18 10.89 17.08 87.51 24.59 90.52 84.68 19.91 80.18 10.89"/>
        </g>
      </g>
    </g>
    <text class="cls-11" transform="translate(38.11 47.76)"><tspan x="0" y="0">3</tspan></text>
  </g>
</svg>