<?xml version="1.0" encoding="UTF-8"?>
<svg id="EXPORT_BOARD" data-name="EXPORT BOARD" xmlns="http://www.w3.org/2000/svg" viewBox="0 0 105 128">
  <defs>
    <style>
      .cls-1 {
        fill: #fff;
        stroke-width: 0px;
      }
    </style>
  </defs>
  <g id="R_OLD" data-name="R OLD">
    <path class="cls-1" d="M100.94,35.71C100.94,31.21,60.21,1.19,55.14,1.19c-2.36,0-3,16.61-2.86,34.52-.14,17.91.5,34.52,2.86,34.52,5.07,0,45.8-30.02,45.8-34.52Z"/>
    <path class="cls-1" d="M78.15,69.92c-.54,1.44-.24,1.89-.44,5.28,0,0-.37,6.39-1.95,11.69-2.05,6.91-10.96,13.35-19.61,14.35-14.43,1.66-30.74-11.53-30.03-27.26.5-11.01,8.16-20.51,18.65-23.87,4.72-1.51,9.2-1.48,13.34-.56,0-1.36,0-2.72.02-4.1-.06-7.84.03-15.43.34-21.49-2-.23-4.03-.37-6.09-.37C22.79,23.59-.99,48.5.88,78.49c1.6,25.7,22.51,46.62,48.22,48.22,30,1.86,54.91-21.92,54.91-51.51,0-5.37-1.26-11.36-1.26-11.36-.91-3.01-1.66-5.36-3.61-6.17-1.67-.7-3.2.16-9.81,4.04-8.07,4.74-10.15,5.46-11.18,8.2Z"/>
  </g>
</svg>