<?xml version="1.0" encoding="UTF-8"?>
<svg id="EXPORT_BOARD" data-name="EXPORT BOARD" xmlns="http://www.w3.org/2000/svg" xmlns:xlink="http://www.w3.org/1999/xlink" viewBox="0 0 139.5 128">
  <defs>
    <style>
      .cls-1 {
        fill: #a4001d;
      }

      .cls-2 {
        fill: #48000f;
      }

      .cls-2, .cls-3, .cls-4, .cls-5, .cls-6, .cls-7, .cls-8, .cls-9, .cls-10 {
        stroke-width: 0px;
      }

      .cls-3 {
        fill: #410f17;
      }

      .cls-4 {
        fill: none;
      }

      .cls-11, .cls-6 {
        fill: #640011;
      }

      .cls-5 {
        fill: #521317;
      }

      .cls-7 {
        fill: #cbdfff;
      }

      .cls-12 {
        clip-path: url(#clippath);
      }

      .cls-8 {
        fill: #ffb942;
      }

      .cls-9 {
        fill: #a9c3ef;
      }

      .cls-10 {
        fill: #fff;
      }
    </style>
    <clipPath id="clippath">
      <path class="cls-6" d="M120.66,46.03V10.82c0-1.39-1.53-2.51-3.42-2.51h-15.32c-1.89,0-3.42,1.13-3.42,2.51l.1,23.41"/>
    </clipPath>
  </defs>
  <g>
    <path class="cls-11" d="M120.66,46.03V10.82c0-1.39-1.53-2.51-3.42-2.51h-15.32c-1.89,0-3.42,1.13-3.42,2.51l.1,23.41"/>
    <g class="cls-12">
      <rect class="cls-2" x="98.6" y="19.71" width="8.02" height="3.52" rx=".23" ry=".23"/>
      <rect class="cls-2" x="108.63" y="19.71" width="8.02" height="3.52" rx=".23" ry=".23"/>
      <rect class="cls-2" x="104.62" y="14.43" width="8.02" height="3.52" rx=".23" ry=".23"/>
      <rect class="cls-2" x="114.65" y="14.43" width="8.02" height="3.52" rx=".23" ry=".23"/>
      <rect class="cls-2" x="104.62" y="24.99" width="8.02" height="3.52" rx=".23" ry=".23"/>
      <rect class="cls-2" x="114.65" y="24.99" width="8.02" height="3.52" rx=".23" ry=".23"/>
      <rect class="cls-2" x="108.63" y="19.71" width="8.02" height="3.52" rx=".23" ry=".23"/>
      <rect class="cls-2" x="118.66" y="19.71" width="8.02" height="3.52" rx=".23" ry=".23"/>
    </g>
  </g>
  <g>
    <rect class="cls-4" x="60.23" y="86.92" width="18.06" height="13.76" rx=".57" ry=".57"/>
    <rect class="cls-9" x="59.5" y="86" width="21" height="17"/>
    <path class="cls-5" d="M81.76,83.05h-24.53c-.7,0-1.27.57-1.27,1.27v43.22h27.06v-43.22c0-.7-.57-1.27-1.27-1.27ZM60.23,100.12v-12.63c0-.31.25-.57.57-.57h16.92c.31,0,.57.25.57.57v12.63c0,.31-.25.57-.57.57h-16.92c-.31,0-.57-.25-.57-.57ZM77.54,109.49c-1.66,0-3.01-1.18-3.01-2.64s1.35-2.64,3.01-2.64,3.01,1.18,3.01,2.64-1.35,2.64-3.01,2.64Z"/>
    <path class="cls-10" d="M19.98,123.25c0,2.36,1.89,4.28,4.22,4.28h31.76v-43.22c0-.7.57-1.27,1.27-1.27h24.53c.7,0,1.27.57,1.27,1.27v43.22h31.76c2.33,0,4.22-1.92,4.22-4.28v-56.41l-99.03,11.59v44.82Z"/>
    <ellipse class="cls-8" cx="77.54" cy="106.85" rx="3.01" ry="2.64"/>
    <path class="cls-7" d="M60.23,59.72H19.98v18.72l99.03-11.59v-7.13h-58.79Z"/>
    <polygon class="cls-5" points="81.5 60.2 26.5 50 19.98 63.72 81.5 63.72 81.5 60.2"/>
    <polygon class="cls-5" points="68.36 20.96 61.8 26.75 75.22 26.75 68.36 20.96"/>
    <path class="cls-5" d="M86.5,26l-30.67,6.03-1.99,1.76h24.18c.29,0,.53.24.53.53v4.21c0,.29-.24.53-.53.53h-30.15l-1.99,1.76h28.13c.29,0,.53.24.53.53v4.21c0,.29-.24.53-.53.53h-34.1l-1.99,1.76h34.09c.29,0,.53.24.53.53v1.55l5.77,13.76h40.72l3.48-7.72-36-30Z"/>
    <polygon class="cls-5" points="75.5 12 32.5 35 29.94 62 94.5 62 75.5 12"/>
    <polygon class="cls-3" points="60.23 54.92 29.94 54.92 23.97 60.2 60.23 60.2 60.23 54.92"/>
    <path class="cls-3" d="M62.5,59.67v-4.21c0-.29-.24-.53-.53-.53h-1.73v5.28h1.73c.29,0,.53-.24.53-.53Z"/>
    <path class="cls-3" d="M60.23,50.59c0-.35.28-.63.63-.63h11.66v-1.55c0-.29-.24-.53-.53-.53h-34.09l-5.97,5.28h28.3v-2.57Z"/>
    <path class="cls-3" d="M72.37,53h-8.48c-.13,0-.24.06-.31.15h8.42c.15,0,.28-.06.38-.15Z"/>
    <path class="cls-3" d="M60.23,50.59v2.57h3.34c.07-.09.18-.15.31-.15h8.48c.1-.1.16-.23.16-.38v-2.67h-11.66c-.35,0-.63.28-.63.63Z"/>
    <path class="cls-3" d="M74.53,45.58v-4.21c0-.29-.24-.53-.53-.53h-28.13l-2.49,2.2-3.48,3.08h34.1c.29,0,.53-.24.53-.53Z"/>
    <path class="cls-3" d="M78.54,38.54v-4.21c0-.29-.24-.53-.53-.53h-24.18l-5.97,5.28h30.15c.29,0,.53-.24.53-.53Z"/>
    <polygon class="cls-3" points="75.22 26.75 61.8 26.75 55.83 32.03 81.48 32.03 75.22 26.75"/>
    <path class="cls-1" d="M136.77,58.01L71.64,1.27c-1.23-1.07-3.05-1.07-4.28,0L2.23,58.01c-2.27,1.98-.87,5.71,2.14,5.71h15.61l3.98-3.52,5.97-5.28,1.99-1.76,5.97-5.28,1.99-1.76,3.48-3.08,2.49-2.2,1.99-1.76,5.97-5.28,1.99-1.76,5.97-5.28,6.56-5.8,6.87,5.8,6.26,5.28,13.03,11,24.5,20.68h15.61c3.01,0,4.41-3.73,2.14-5.71Z"/>
  </g>
</svg>