<?xml version="1.0" encoding="UTF-8"?>
<svg id="EXPORT_BOARD" data-name="EXPORT BOARD" xmlns="http://www.w3.org/2000/svg" xmlns:xlink="http://www.w3.org/1999/xlink" viewBox="0 0 87 128">
  <defs>
    <style>
      .cls-1, .cls-2 {
        fill: #521317;
      }

      .cls-3 {
        fill: #410f17;
      }

      .cls-3, .cls-2, .cls-4 {
        stroke-width: 0px;
      }

      .cls-5 {
        clip-path: url(#clippath);
      }

      .cls-4 {
        fill: #fff;
      }
    </style>
    <clipPath id="clippath">
      <rect class="cls-2" x="1" y="1" width="85.42" height="126.54" rx="9.5" ry="9.5"/>
    </clipPath>
  </defs>
  <g id="RB">
    <g>
      <rect class="cls-1" x="1" y="1" width="85.42" height="126.54" rx="9.5" ry="9.5"/>
      <g class="cls-5">
        <polygon class="cls-3" points="-23.97 77.72 114.59 6.54 112.69 55.57 -37.26 145.73 -23.97 77.72"/>
      </g>
    </g>
    <g>
      <g id="Arrow1">
        <rect class="cls-4" x="21.64" y="35.43" width="11.83" height="45.45" rx="1.9" ry="1.9" transform="translate(55.11 116.31) rotate(-180)"/>
      </g>
      <path class="cls-4" d="M30.56,17.61c-1.89.02-2.66,2.02-6.33,6.33-.9,1.06-1.6,1.92-7.55,10.46-2.35,3.36-3.51,5.06-3.08,5.99.65,1.4,3.32,1.27,8.18,1.18,6.09-.12,12.18-.04,18.27-.23,9.41-.3,12.13-.14,12.65-1.58.41-1.11-.88-2.09-4.75-6.33-2.17-2.37-6.88-7.63-14.24-14.24-.79-.7-1.8-1.59-3.16-1.58Z"/>
    </g>
    <g id="ARROW">
      <g id="Arrow1-2" data-name="Arrow1">
        <rect class="cls-4" x="52.37" y="49.24" width="11.83" height="45.45" rx="1.9" ry="1.9"/>
      </g>
      <path class="cls-4" d="M55.28,112.51c1.89-.02,2.66-2.02,6.33-6.33.9-1.06,1.6-1.92,7.55-10.46,2.35-3.36,3.51-5.06,3.08-5.99-.65-1.4-3.32-1.27-8.18-1.18-6.09.12-12.18.04-18.27.23-9.41.3-12.13.14-12.65,1.58-.41,1.11.88,2.09,4.75,6.33,2.17,2.37,6.88,7.63,14.24,14.24.79.7,1.8,1.59,3.16,1.58Z"/>
    </g>
  </g>
</svg>