<?xml version="1.0" encoding="UTF-8"?>
<svg id="EXPORT_BOARD" data-name="EXPORT BOARD" xmlns="http://www.w3.org/2000/svg" xmlns:xlink="http://www.w3.org/1999/xlink" viewBox="0 0 136 128">
  <defs>
    <style>
      .cls-1, .cls-2, .cls-3, .cls-4, .cls-5, .cls-6, .cls-7, .cls-8 {
        stroke-width: 0px;
      }

      .cls-1, .cls-9 {
        fill: #ffd75a;
      }

      .cls-10, .cls-2 {
        fill: #d2542d;
      }

      .cls-11, .cls-4 {
        fill: #93a6bd;
      }

      .cls-12 {
        clip-path: url(#clippath-2);
      }

      .cls-13 {
        clip-path: url(#clippath-6);
      }

      .cls-14 {
        clip-path: url(#clippath-7);
      }

      .cls-15 {
        clip-path: url(#clippath-1);
      }

      .cls-16 {
        clip-path: url(#clippath-4);
      }

      .cls-17, .cls-6 {
        fill: #b63f31;
      }

      .cls-3, .cls-18 {
        fill: #27001d;
      }

      .cls-19 {
        clip-path: url(#clippath-9);
      }

      .cls-20 {
        clip-path: url(#clippath);
      }

      .cls-21 {
        clip-path: url(#clippath-3);
      }

      .cls-5, .cls-22 {
        fill: #ffb942;
      }

      .cls-23, .cls-8 {
        fill: #798ba6;
      }

      .cls-24 {
        clip-path: url(#clippath-8);
      }

      .cls-25 {
        clip-path: url(#clippath-5);
      }

      .cls-7 {
        fill: #a4001d;
      }
    </style>
    <clipPath id="clippath">
      <path id="RRibbon-2" data-name="RRibbon" class="cls-3" d="M100.34,81.4l-4.86-43.66,1.02-.26c6.17-1.55,12.34-3.09,18.5-4.64l1.02-.26,16.3,40.79,2.64,6.61c.13.33-.46.71-1,.65-3.49-.4-7.92-1.21-12.26-2.93-2.29-.86-4.21-1.88-5.83-2.98-.11-.07-.33-.02-.39.1-.91,1.73-2.12,3.54-3.74,5.37-3.03,3.56-6.55,6.37-9.43,8.37-.45.31-1.15.25-1.19-.1l-.79-7.07Z"/>
    </clipPath>
    <clipPath id="clippath-1">
      <path id="RRibbon-5" data-name="RRibbon" class="cls-3" d="M76.4,89.49l-.87-43.87.98-.15c5.92-.87,11.84-1.75,17.76-2.62l.98-.15,11.85,42.25,1.92,6.84c.09.34-.49.66-.99.54-3.24-.77-7.33-2.05-11.26-4.22-2.08-1.1-3.79-2.31-5.22-3.58-.1-.08-.31-.05-.38.06-1,1.62-2.29,3.28-3.96,4.94-3.14,3.22-6.68,5.62-9.56,7.3-.45.26-1.1.12-1.11-.23l-.14-7.1Z"/>
    </clipPath>
    <clipPath id="clippath-2">
      <path class="cls-2" d="M102.29.54c-14.75,0-26.76,12-26.76,26.75s12,26.76,26.76,26.76,26.76-12,26.76-26.76S117.04.54,102.29.54Z"/>
    </clipPath>
    <clipPath id="clippath-3">
      <path class="cls-6" d="M102.94,12.81c-8.43,0-15.29,6.86-15.29,15.29s6.86,15.29,15.29,15.29,15.29-6.86,15.29-15.29-6.86-15.29-15.29-15.29Z"/>
    </clipPath>
    <clipPath id="clippath-4">
      <path class="cls-4" d="M79.11,2.37c-16.04,0-29.09,13.05-29.09,29.09s13.05,29.09,29.09,29.09,29.09-13.05,29.09-29.09S95.15,2.37,79.11,2.37Z"/>
    </clipPath>
    <clipPath id="clippath-5">
      <path class="cls-8" d="M79.74,15.22c-9.16,0-16.62,7.46-16.62,16.62s7.46,16.62,16.62,16.62,16.62-7.46,16.62-16.62-7.46-16.62-16.62-16.62Z"/>
    </clipPath>
    <clipPath id="clippath-6">
      <path id="LRibbon-2" data-name="LRibbon" class="cls-3" d="M2.03,101.35l36.58-56.15c1-1.53,2.9-2.07,4.34-1.24l15.72,9.01c1.45.83,1.94,2.75,1.12,4.38l-29.96,59.94c-.03.06-.07.13-.1.19l-.41.71c-.43.75-1.11,1.33-1.89,1.62l-19.05,6.95h0c-.57.21-1.14.41-1.71.62-.75.27-1.51-.16-1.66-.95l-.33-1.79h0s-3.63-19.93-3.63-19.93c-.15-.82,0-1.7.44-2.45l.41-.72c.04-.06.07-.12.11-.18Z"/>
    </clipPath>
    <clipPath id="clippath-7">
      <path id="RRibbon-8" data-name="RRibbon" class="cls-3" d="M55.31,98.34l-1.29-43.81.91-.13c5.47-.81,10.94-1.62,16.41-2.42l.91-.13,11.44,42.31,1.85,6.85c.09.34-.45.65-.91.53-3.01-.81-6.81-2.13-10.47-4.34-1.94-1.12-3.54-2.35-4.87-3.63-.09-.09-.29-.06-.35.05-.91,1.61-2.09,3.25-3.62,4.88-2.87,3.18-6.12,5.54-8.77,7.18-.41.25-1.02.11-1.03-.24l-.21-7.09Z"/>
    </clipPath>
    <clipPath id="clippath-8">
      <path class="cls-5" d="M58.2,4.85c-17.85,0-32.38,14.52-32.38,32.38s14.52,32.38,32.38,32.38,32.38-14.52,32.38-32.38S76.06,4.85,58.2,4.85Z"/>
    </clipPath>
    <clipPath id="clippath-9">
      <path class="cls-1" d="M58.36,19.43c-9.9,0-17.96,8.05-17.96,17.96s8.05,17.96,17.96,17.96,17.96-8.05,17.96-17.96-8.05-17.96-17.96-17.96Z"/>
    </clipPath>
  </defs>
  <g>
    <path id="RRibbon" class="cls-18" d="M100.34,81.4l-4.86-43.66,1.02-.26c6.17-1.55,12.34-3.09,18.5-4.64l1.02-.26,16.3,40.79,2.64,6.61c.13.33-.46.71-1,.65-3.49-.4-7.92-1.21-12.26-2.93-2.29-.86-4.21-1.88-5.83-2.98-.11-.07-.33-.02-.39.1-.91,1.73-2.12,3.54-3.74,5.37-3.03,3.56-6.55,6.37-9.43,8.37-.45.31-1.15.25-1.19-.1l-.79-7.07Z"/>
    <g class="cls-20">
      <path id="RRibbon-3" data-name="RRibbon" class="cls-7" d="M96.97,71.37l-5.06-45.48,1.07-.27c6.43-1.61,12.85-3.22,19.28-4.83l1.07-.27,16.98,42.5,2.75,6.88c.14.34-.48.74-1.04.68-3.63-.42-8.25-1.27-12.78-3.05-2.39-.9-4.39-1.95-6.07-3.1-.11-.08-.35-.02-.41.1-.95,1.81-2.21,3.68-3.9,5.6-3.15,3.71-6.82,6.64-9.83,8.72-.47.32-1.2.26-1.24-.11l-.82-7.37Z"/>
    </g>
  </g>
  <g>
    <path id="RRibbon-4" data-name="RRibbon" class="cls-18" d="M76.4,89.49l-.87-43.87.98-.15c5.92-.87,11.84-1.75,17.76-2.62l.98-.15,11.85,42.25,1.92,6.84c.09.34-.49.66-.99.54-3.24-.77-7.33-2.05-11.26-4.22-2.08-1.1-3.79-2.31-5.22-3.58-.1-.08-.31-.05-.38.06-1,1.62-2.29,3.28-3.96,4.94-3.14,3.22-6.68,5.62-9.56,7.3-.45.26-1.1.12-1.11-.23l-.14-7.1Z"/>
    <g class="cls-15">
      <path id="RRibbon-6" data-name="RRibbon" class="cls-3" d="M74.08,79.17l-.91-45.71,1.02-.15c6.17-.91,12.33-1.82,18.5-2.73l1.02-.15,12.35,44.02,2,7.13c.1.35-.51.68-1.03.56-3.38-.8-7.63-2.14-11.74-4.4-2.16-1.14-3.95-2.41-5.44-3.73-.1-.09-.32-.06-.39.06-1.04,1.69-2.39,3.42-4.13,5.14-3.27,3.35-6.96,5.86-9.96,7.61-.46.27-1.14.13-1.15-.24l-.15-7.4Z"/>
    </g>
  </g>
  <g>
    <path class="cls-10" d="M102.29.54c-14.75,0-26.76,12-26.76,26.75s12,26.76,26.76,26.76,26.76-12,26.76-26.76S117.04.54,102.29.54Z"/>
    <g class="cls-12">
      <polygon class="cls-6" points="115.15 -33.81 39.53 46.27 51.12 59.25 123.28 -26.71 115.15 -33.81"/>
      <polygon class="cls-6" points="123.13 -14.5 66.64 56.57 70.29 58.39 128.6 -12.67 123.13 -14.5"/>
    </g>
  </g>
  <g>
    <path class="cls-17" d="M102.94,12.81c-8.43,0-15.29,6.86-15.29,15.29s6.86,15.29,15.29,15.29,15.29-6.86,15.29-15.29-6.86-15.29-15.29-15.29Z"/>
    <g class="cls-21">
      <polygon class="cls-6" points="112.02 4.98 76.32 42.79 81.79 48.92 115.86 8.33 112.02 4.98"/>
      <polygon class="cls-6" points="115.79 14.1 89.12 47.66 90.84 48.52 118.37 14.96 115.79 14.1"/>
    </g>
  </g>
  <g>
    <path class="cls-11" d="M79.11,2.37c-16.04,0-29.09,13.05-29.09,29.09s13.05,29.09,29.09,29.09,29.09-13.05,29.09-29.09S95.15,2.37,79.11,2.37Z"/>
    <g class="cls-16">
      <polygon class="cls-8" points="95.62 -27.83 20 52.25 31.59 65.23 103.75 -20.73 95.62 -27.83"/>
      <polygon class="cls-8" points="103.6 -8.52 47.11 62.55 50.76 64.37 109.07 -6.69 103.6 -8.52"/>
    </g>
  </g>
  <g>
    <path class="cls-23" d="M79.74,15.22c-9.16,0-16.62,7.46-16.62,16.62s7.46,16.62,16.62,16.62,16.62-7.46,16.62-16.62-7.46-16.62-16.62-16.62Z"/>
    <g class="cls-25">
      <polygon class="cls-8" points="89.62 6.71 50.8 47.82 56.74 54.48 93.79 10.35 89.62 6.71"/>
      <polygon class="cls-8" points="93.71 16.62 64.71 53.11 66.58 54.04 96.52 17.56 93.71 16.62"/>
    </g>
  </g>
  <g>
    <path id="LRibbon" class="cls-18" d="M2.03,101.35l36.58-56.15c1-1.53,2.9-2.07,4.34-1.24l15.72,9.01c1.45.83,1.94,2.75,1.12,4.38l-29.96,59.94c-.03.06-.07.13-.1.19l-.41.71c-.43.75-1.11,1.33-1.89,1.62l-19.05,6.95h0c-.57.21-1.14.41-1.71.62-.75.27-1.51-.16-1.66-.95l-.33-1.79h0s-3.63-19.93-3.63-19.93c-.15-.82,0-1.7.44-2.45l.41-.72c.04-.06.07-.12.11-.18Z"/>
    <g class="cls-13">
      <path id="LRibbon-3" data-name="LRibbon" class="cls-7" d="M8.5,89.29l36.68-56.09c1-1.53,2.93-2.05,4.42-1.2l16.17,9.27c1.49.85,2.01,2.79,1.2,4.42l-29.87,60c-.03.06-.07.13-.1.19l-.41.71c-.43.75-1.11,1.33-1.91,1.6l-19.37,6.76h0c-.89.31-1.78.62-2.68.93-.26.09-.52-.06-.58-.33l-.55-2.78h0s-3.95-20.11-3.95-20.11c-.16-.83-.01-1.71.42-2.46l.41-.72c.04-.06.07-.12.11-.18Z"/>
    </g>
  </g>
  <g>
    <path id="RRibbon-7" data-name="RRibbon" class="cls-18" d="M55.31,98.34l-1.29-43.81.91-.13c5.47-.81,10.94-1.62,16.41-2.42l.91-.13,11.44,42.31,1.85,6.85c.09.34-.45.65-.91.53-3.01-.81-6.81-2.13-10.47-4.34-1.94-1.12-3.54-2.35-4.87-3.63-.09-.09-.29-.06-.35.05-.91,1.61-2.09,3.25-3.62,4.88-2.87,3.18-6.12,5.54-8.77,7.18-.41.25-1.02.11-1.03-.24l-.21-7.09Z"/>
    <g class="cls-14">
      <path id="RRibbon-9" data-name="RRibbon" class="cls-7" d="M53.05,88.01l-1.34-45.64.95-.14c5.7-.84,11.4-1.68,17.1-2.53l.95-.14,11.92,44.08,1.93,7.14c.1.35-.47.68-.95.55-3.13-.84-7.09-2.22-10.91-4.52-2.02-1.17-3.69-2.45-5.08-3.78-.09-.09-.3-.06-.36.05-.95,1.68-2.17,3.39-3.77,5.09-2.99,3.31-6.38,5.77-9.14,7.48-.43.26-1.06.12-1.07-.25l-.22-7.39Z"/>
    </g>
  </g>
  <g>
    <path class="cls-22" d="M58.2,4.85c-17.85,0-32.38,14.52-32.38,32.38s14.52,32.38,32.38,32.38,32.38-14.52,32.38-32.38S76.06,4.85,58.2,4.85Z"/>
    <g class="cls-24">
      <polygon class="cls-1" points="77.44 -11.72 1.82 68.35 13.41 81.33 85.57 -4.63 77.44 -11.72"/>
      <polygon class="cls-1" points="85.43 7.59 28.93 78.65 32.58 80.48 90.89 9.41 85.43 7.59"/>
    </g>
  </g>
  <g>
    <path class="cls-9" d="M58.36,19.43c-9.9,0-17.96,8.05-17.96,17.96s8.05,17.96,17.96,17.96,17.96-8.05,17.96-17.96-8.05-17.96-17.96-17.96Z"/>
    <g class="cls-19">
      <polygon class="cls-1" points="69.03 10.24 27.09 54.65 33.52 61.84 73.54 14.17 69.03 10.24"/>
      <polygon class="cls-1" points="73.45 20.95 42.13 60.36 44.15 61.37 76.49 21.96 73.45 20.95"/>
    </g>
  </g>
</svg>