<?xml version="1.0" encoding="UTF-8"?>
<svg id="EXPORT_BOARD" data-name="EXPORT BOARD" xmlns="http://www.w3.org/2000/svg" xmlns:xlink="http://www.w3.org/1999/xlink" viewBox="0 0 128 128">
  <defs>
    <style>
      .cls-1 {
        fill: url(#linear-gradient);
      }

      .cls-1, .cls-2, .cls-3, .cls-4, .cls-5 {
        stroke-width: 0px;
      }

      .cls-6 {
        clip-path: url(#clippath-1);
      }

      .cls-7, .cls-3 {
        fill: #fff;
      }

      .cls-8 {
        clip-path: url(#clippath);
      }

      .cls-2, .cls-9 {
        fill: #ffb942;
      }

      .cls-4 {
        fill: #001;
      }

      .cls-5 {
        fill: #0e0e73;
      }
    </style>
    <clipPath id="clippath">
      <path id="Beach_half-2" data-name="Beach half" class="cls-3" d="M96.17,39.79c1.16-1.41,3.24-1.6,4.49-.39,15.7,15.24,16.81,41.27,1.96,59.25-14.84,17.97-40.62,21.81-58.55,9.27-1.43-1-1.63-3.08-.47-4.49l52.56-63.64Z"/>
    </clipPath>
    <linearGradient id="linear-gradient" x1="76.14" y1="111.61" x2="76.99" y2="51.3" gradientUnits="userSpaceOnUse">
      <stop offset="0" stop-color="#f15a24"/>
      <stop offset=".11" stop-color="#f26326"/>
      <stop offset=".28" stop-color="#f67c2f"/>
      <stop offset=".5" stop-color="#fca53b"/>
      <stop offset=".59" stop-color="#ffb942"/>
    </linearGradient>
    <clipPath id="clippath-1">
      <path id="Indoor_half-2" data-name="Indoor half" class="cls-2" d="M30.09,90.84c-1.17,1.41-3.25,1.59-4.52.37-15.86-15.37-17.09-41.51-2.25-59.48,14.84-17.97,40.74-21.71,58.83-9.04,1.44,1.01,1.66,3.1.49,4.51l-52.56,63.64Z"/>
    </clipPath>
  </defs>
  <g id="BI">
    <g>
      <path id="Beach_half" data-name="Beach half" class="cls-7" d="M96.17,39.79c1.16-1.41,3.24-1.6,4.49-.39,15.7,15.24,16.81,41.27,1.96,59.25-14.84,17.97-40.62,21.81-58.55,9.27-1.43-1-1.63-3.08-.47-4.49l52.56-63.64Z"/>
      <g class="cls-8">
        <path class="cls-1" d="M66.91,71.65c7.07,1.74,14.94,3.3,23.54,4.41,5.69.74,11.09,1.2,16.18,1.47-1.47,4.41-2.94,8.83-4.41,13.24-5.54,2.69-12.98,5.6-22.06,7.35-14.15,2.73-26.14,1.47-33.83,0,6.86-8.83,13.73-17.65,20.59-26.48Z"/>
        <path class="cls-5" d="M86.04,49.59c12.27,9.2,18.79,23.65,16.18,36.77-3.65,18.36-24.87,32.65-48.54,27.95,16.67,1.47,33.34,2.94,50.01,4.41l13.24-39.72v-26.48l-16.18-16.18-4.41-1.47-10.3,14.71Z"/>
      </g>
    </g>
    <g>
      <path id="Indoor_half" data-name="Indoor half" class="cls-9" d="M30.09,90.84c-1.17,1.41-3.25,1.59-4.52.37-15.86-15.37-17.09-41.51-2.25-59.48,14.84-17.97,40.74-21.71,58.83-9.04,1.44,1.01,1.66,3.1.49,4.51l-52.56,63.64Z"/>
      <g class="cls-6">
        <path class="cls-5" d="M44.6,39.9c2.58,2.24,6.48,5.12,11.77,7.35,3.91,1.65,7.48,2.5,10.3,2.94-3.92,5.39-7.85,10.79-11.77,16.18-1.36-.76-2.86-1.73-4.41-2.94-2.57-2.01-4.49-4.1-5.88-5.88-1.41.55-11.24,4.52-14.71,13.24-.74,1.85-1.99,4.99-1.47,8.83.23,1.7.78,3.57,1.47,5.88.55,1.84,1.08,3.36,1.47,4.41v5.88c-13.74-8.63-19.19-23.4-14.71-33.83,3.16-7.37,10.45-10.68,13.24-11.77,2.27-9.26,3.17-16.36,2.94-19.12-.08-.91-.23-2.73-1.47-4.41-.54-.73-1.11-1.21-1.47-1.47.64-1.38,1.57-2.93,2.94-4.41,5.21-5.64,12.7-5.88,14.71-5.88,1.37.34,3.34,1.11,4.41,2.94.59,1.02,1.45,3.31-2.94,13.24-1.01,2.29-2.46,5.33-4.41,8.83Z"/>
      </g>
    </g>
    <rect id="line_in_the_middle" data-name="line in the middle" class="cls-4" x="60.53" y="-16.51" width="5.75" height="161.8" rx="2.54" ry="2.54" transform="translate(55.36 -25.62) rotate(39.45)"/>
  </g>
</svg>