<?xml version="1.0" encoding="UTF-8"?>
<svg id="EXPORT_BOARD" data-name="EXPORT BOARD" xmlns="http://www.w3.org/2000/svg" xmlns:xlink="http://www.w3.org/1999/xlink" viewBox="0 0 122.5 128">
  <defs>
    <style>
      .cls-1 {
        fill: #c65c21;
      }

      .cls-1, .cls-2, .cls-3 {
        stroke-width: 0px;
      }

      .cls-4, .cls-3 {
        fill: #ff7721;
      }

      .cls-5 {
        clip-path: url(#clippath-1);
      }

      .cls-6 {
        clip-path: url(#clippath);
      }

      .cls-2 {
        fill: #fff;
      }
    </style>
    <clipPath id="clippath">
      <rect class="cls-3" x="51.23" y="64.95" width="19.54" height="30.94"/>
    </clipPath>
    <clipPath id="clippath-1">
      <path class="cls-3" d="M95.83,126.83H26.17c-1.3,0-2.36-1.05-2.36-2.36v-11.57c5.44-16.12,20.7-26.97,37.61-26.78,16.6.18,31.41,10.96,36.75,26.78v11.57c0,1.3-1.05,2.36-2.36,2.36Z"/>
    </clipPath>
  </defs>
  <g id="WP">
    <g>
      <rect class="cls-4" x="51.23" y="64.95" width="19.54" height="30.94"/>
      <g class="cls-6">
        <polygon class="cls-1" points="38.63 73.09 77.71 74.72 76.08 82.86 33.75 87.75 38.63 73.09"/>
      </g>
    </g>
    <path class="cls-3" d="M111.08,1.17H10.92C5.3,1.17.75,5.72.75,11.34v13.85c0,5.62,4.55,10.17,10.17,10.17h100.15c5.62,0,10.17-4.55,10.17-10.17v-13.85c0-5.62-4.55-10.17-10.17-10.17ZM19.65,26.77v.73h-6.11c-3.23,0-5.85-2.55-5.85-5.69v-8.16c0-3.14,2.62-5.69,5.85-5.69h6.2c-.06,6.21-.09,12.48-.09,18.81ZM113.54,21.81c0,3.14-2.6,5.69-5.8,5.69h-5.39v-.73c0-6.34-.03-12.61-.09-18.82h5.48c3.2,0,5.8,2.55,5.8,5.69v8.16Z"/>
    <g>
      <path class="cls-4" d="M95.83,126.83H26.17c-1.3,0-2.36-1.05-2.36-2.36v-11.57c5.44-16.12,20.7-26.97,37.61-26.78,16.6.18,31.41,10.96,36.75,26.78v11.57c0,1.3-1.05,2.36-2.36,2.36Z"/>
      <g class="cls-5">
        <polygon class="cls-1" points="19.09 112.18 108.65 112.18 110.28 131.72 56.54 133.34 4.44 130.09 19.09 112.18"/>
      </g>
    </g>
    <path class="cls-3" d="M71.91,1.45h-21.57c-16.96,0-30.7,13.75-30.7,30.7v15.13c0,16.96,13.75,30.7,30.7,30.7h21.57c16.82,0,30.45-13.75,30.45-30.7v-15.13c0-16.96-13.63-30.7-30.45-30.7Z"/>
    <circle class="cls-2" cx="45.35" cy="27.93" r="6.51"/>
    <circle class="cls-2" cx="76.65" cy="43.53" r="6.51"/>
    <path class="cls-2" d="M50.01,63.32h-5.79c-1.71,0-2.8-1.84-1.97-3.34l27.14-49.23c.4-.72,1.15-1.17,1.97-1.17h5.79c1.71,0,2.8,1.84,1.97,3.34l-27.14,49.23c-.4.72-1.15,1.17-1.97,1.17Z"/>
  </g>
</svg>